<?xml version="1.0" encoding="UTF-8"?>
<svg id="_レイヤー_2" data-name="レイヤー 2" xmlns="http://www.w3.org/2000/svg" viewBox="0 0 476.48 534.55">
  <defs>
    <style>
      .cls-1 {
        fill: #fff;
      }

      .cls-1, .cls-2 {
        stroke-width: 0px;
      }

      .cls-2 {
        fill: #005bac;
      }

      .cls-3 {
        fill: none;
        stroke: #fff;
        stroke-width: 12.38px;
      }
    </style>
  </defs>
  <g id="_レイヤー_1-2" data-name="レイヤー 1">
    <path class="cls-2" d="M449.73,534.55c14.73,0,26.75-12.02,26.75-26.81v-114.38c0-8.14-3.34-20.48-7.38-27.48L265.52,17.93l.18.3c-2.55-4.55-10.26-18.23-27.45-18.23s-24.9,13.71-27.42,18.23l.15-.27L7.44,365.89c-4.09,7-7.44,19.34-7.44,27.48v114.38c0,14.8,12.02,26.81,26.78,26.81h422.95Z"/>
    <path class="cls-3" d="M449.73,516.86c5.04,0,9.09-4.08,9.09-9.12v-115.52c0-4.84-2.02-12.27-4.48-16.46L250.28,26.87c-3.22-5.69-6.53-9.2-12.04-9.2s-8.79,3.52-12.01,9.2L22.12,375.77c-2.43,4.22-4.45,11.62-4.45,16.49v115.48c0,5.04,4.1,9.12,9.12,9.12h422.95Z"/>
    <path class="cls-1" d="M104.09,303.58c-1.09,3.05.64,5.53,3.89,5.53h44.27c1.61,0,3.4-1.23,3.98-2.72l7.09-19.6c1.09-3.05-.64-5.54-3.92-5.54h-44.24c-1.58,0-3.4,1.26-3.92,2.78l-7.15,19.55Z"/>
    <path class="cls-1" d="M372.07,303.58c1.12,3.05-.65,5.53-3.9,5.53h-44.23c-1.64,0-3.4-1.23-3.95-2.72l-7.16-19.6c-1.08-3.05.68-5.54,3.9-5.54h44.27c1.61,0,3.39,1.26,3.92,2.78l7.15,19.55Z"/>
    <path class="cls-1" d="M427.15,489.49c3.28,0,5.01-2.52,3.9-5.56l-7.12-19.55c-.55-1.52-2.34-2.78-3.97-2.78H56.55c-1.62,0-3.41,1.26-3.96,2.78l-7.09,19.55c-1.16,3.05.61,5.56,3.85,5.56h377.8Z"/>
    <path class="cls-1" d="M131.34,436.23c-28.51,0-51.71-23.18-51.71-51.66s23.2-51.73,51.71-51.73c8.76,0,16.99,2.16,24.2,6.01l-25.16,43.59c-.94,1.58-.94,3.6-.03,5.18.94,1.64,2.66,2.61,4.51,2.61h47.87c-2.84,25.84-24.79,46-51.39,46M143.91,379.84c2.87-5.04,11.13-19.37,20.3-35.22,10.37,8.59,17.31,21.09,18.6,35.22h-38.91ZM203.37,379.84h-10.16c-1.34-17.99-10.37-33.78-23.76-44.24,8.79-15.23,17.58-30.41,22.65-39.14l20.24,69.59c-4.42,3.34-7.7,8.17-8.97,13.8M214.6,373.71l1.79,6.12h-5.39c.76-2.29,1.96-4.42,3.6-6.12M224.12,401.43c-6.19-.97-11.23-5.34-13.12-11.2h11.16c.7,0,1.35-.15,1.97-.38v11.58ZM224.12,376.61l-2.17-7.44c.7-.2,1.41-.38,2.17-.5v7.94ZM243.37,385.02c0,8.34-6.12,15.14-14.03,16.41v-13.89l9.23-14.21c2.99,3.02,4.8,7.15,4.8,11.7M229.34,374.21v-5.54c1.05.18,2.08.41,3.08.79l-3.08,4.75ZM236.48,363.23c-2.23-1-4.66-1.55-7.15-1.85v-9.9h4.34v-5.22h-13.89v5.22h4.34v9.9c-1.44.18-2.84.45-4.22.82l-22.88-78.42h91.23l-51.77,79.45ZM334.02,436.23c-28.54,0-51.74-23.18-51.74-51.66,0-16.99,8.23-31.99,20.86-41.42l3.49,14.33,25.1,30.32c1.47,1.76,4.07,2.02,5.86.55,1-.82,1.49-2.02,1.49-3.2,0-.94-.32-1.84-.94-2.66,0,0-22.73-27.48-23.91-28.86-.09-.47-1.55-6.45-3.69-15.12,7.06-3.63,15-5.68,23.47-5.68,28.5,0,51.68,23.2,51.68,51.73s-23.18,51.66-51.68,51.66M216.91,253.33l-47.52-.02c-.34,0-.73.35-.73.76v8.62c0,.35.35.82.7.96l12.54,4.28,1.81-.12,4.42,15.17c-.29.3-.58.56-.81.94l-26.58,45.94c-8.73-4.74-18.78-7.41-29.41-7.41-34.22,0-62.08,27.86-62.08,62.13s27.86,62.05,62.08,62.05c32.32,0,58.91-24.79,61.82-56.4h10.22c2.23,9.88,10.52,17.38,20.75,18.48v9.88h-4.34v5.22h13.89v-5.22h-4.34v-9.88c11.95-1.31,21.33-11.37,21.33-23.7,0-7.09-3.2-13.39-8.12-17.76l48.31-74.21,9.61,39.26c-17.14,11.08-28.59,30.33-28.59,52.27,0,34.2,27.86,62.05,62.14,62.05s62.11-27.86,62.11-62.05-27.89-62.13-62.11-62.13c-9.3,0-18.05,2.08-25.98,5.74-6.22-25.34-14.91-61.03-15.88-64.84,3.16-1.59,8.67-4.4,8.67-4.4,6.71-2.81,12.51-5.3,12.51-13.73,0-7.77-6.33-14.06-14.12-14.06h-37.53c-2.31,0-4.16,1.81-4.16,4.12s1.85,4.16,4.16,4.16h37.53c3.2,0,5.77,2.58,5.77,5.77,0,2.43-.23,3.07-7.41,6.09l-15.32,7.73,1.05,3.07,3.26,13.36h-91.94l-2.4-8.2,1.76-.12c.2-.05,17.05-5.95,22.12-8.93,1.87-1.09,2.7-2.09,2.64-3.02-.12-1.23-1.73-1.84-1.82-1.88"/>
  </g>
</svg>