<?xml version="1.0" encoding="UTF-8"?>
<svg id="_レイヤー_2" data-name="レイヤー 2" xmlns="http://www.w3.org/2000/svg" viewBox="0 0 523.3 523.29">
  <defs>
    <style>
      .cls-1 {
        fill: #ffe100;
      }

      .cls-1, .cls-2 {
        stroke-width: 0px;
      }

      .cls-2 {
        fill: #231815;
      }

      .cls-3 {
        fill: none;
        stroke: #231815;
        stroke-width: 1.5px;
      }
    </style>
  </defs>
  <g id="_レイヤー_1-2" data-name="レイヤー 1">
    <path class="cls-1" d="M519.2,253.48c4.48,4.48,4.48,11.84,0,16.34l-249.41,249.38c-4.47,4.45-11.8,4.45-16.3,0L4.14,269.82c-4.52-4.51-4.52-11.86,0-16.34L253.49,4.14c4.5-4.52,11.84-4.52,16.3,0l249.41,249.34Z"/>
    <path class="cls-3" d="M519.2,253.48c4.48,4.48,4.48,11.84,0,16.34l-249.41,249.38c-4.47,4.45-11.8,4.45-16.3,0L4.14,269.82c-4.52-4.51-4.52-11.86,0-16.34L253.49,4.14c4.5-4.52,11.84-4.52,16.3,0l249.41,249.34Z"/>
    <path class="cls-2" d="M511.45,261.68l-249.79,249.78L11.86,261.68,261.66,11.89l249.79,249.79ZM277.98,43.57c-8.97-8.96-23.66-8.96-32.59,0L43.57,245.36c-9.02,8.97-9.02,23.64,0,32.61l201.81,201.8c8.94,8.96,23.62,8.96,32.59,0l201.77-201.8c8.97-8.97,8.97-23.64,0-32.61L277.98,43.57Z"/>
    <path class="cls-2" d="M261.63,413c11.02,0,19.92-8.88,19.92-19.9s-8.91-19.92-19.92-19.92-19.84,8.94-19.84,19.92,8.87,19.9,19.84,19.9"/>
    <path class="cls-2" d="M258.64,322.07s-44.59-154.78-48.63-179.18c-4.03-24.38,23.15-58.8,51.65-58.8s55.68,34.43,51.68,58.8c-4.1,24.4-48.66,179.18-48.66,179.18h-6.04Z"/>
  </g>
</svg>