<?xml version="1.0" encoding="UTF-8"?>
<svg id="_レイヤー_2" data-name="レイヤー 2" xmlns="http://www.w3.org/2000/svg" viewBox="0 0 546.55 546.55">
  <defs>
    <style>
      .cls-1 {
        fill: #e60012;
      }

      .cls-1, .cls-2 {
        stroke-width: 0px;
      }

      .cls-3 {
        fill: none;
        stroke: #e60012;
        stroke-width: 3.75px;
      }

      .cls-2 {
        fill: #fff;
      }
    </style>
  </defs>
  <g id="_レイヤー_1-2" data-name="レイヤー 1">
    <path class="cls-2" d="M273.26,544.67c149.91,0,271.41-121.49,271.41-271.38S423.17,1.88,273.26,1.88,1.88,123.41,1.88,273.3s121.5,271.38,271.38,271.38"/>
    <path class="cls-3" d="M273.26,544.67c149.91,0,271.41-121.49,271.41-271.38S423.17,1.88,273.26,1.88,1.88,123.41,1.88,273.3s121.5,271.38,271.38,271.38Z"/>
    <path class="cls-1" d="M273.26,525.9c139.52,0,252.6-113.12,252.6-252.6S412.77,20.7,273.26,20.7,20.69,133.76,20.69,273.3s113.05,252.6,252.57,252.6"/>
    <rect class="cls-2" x="51.7" y="220.68" width="443.09" height="105.23"/>
  </g>
</svg>