<?xml version="1.0" encoding="UTF-8"?>
<svg id="_レイヤー_2" data-name="レイヤー 2" xmlns="http://www.w3.org/2000/svg" viewBox="0 0 523.3 523.33">
  <defs>
    <style>
      .cls-1 {
        fill: #ffe100;
      }

      .cls-1, .cls-2 {
        stroke-width: 0px;
      }

      .cls-2 {
        fill: #231815;
      }

      .cls-3 {
        fill: none;
        stroke: #231815;
        stroke-width: 1.5px;
      }
    </style>
  </defs>
  <g id="_レイヤー_1-2" data-name="レイヤー 1">
    <path class="cls-1" d="M519.16,253.52c4.52,4.48,4.52,11.8,0,16.31l-249.34,249.41c-4.47,4.45-11.84,4.45-16.32,0L4.15,269.83c-4.53-4.51-4.53-11.84,0-16.31L253.49,4.11c4.48-4.48,11.85-4.48,16.32,0l249.34,249.41Z"/>
    <path class="cls-3" d="M519.16,253.52c4.52,4.48,4.52,11.8,0,16.31l-249.34,249.41c-4.47,4.45-11.84,4.45-16.32,0L4.15,269.83c-4.53-4.51-4.53-11.84,0-16.31L253.49,4.11c4.48-4.48,11.85-4.48,16.32,0l249.34,249.41Z"/>
    <path class="cls-2" d="M511.44,261.69l-249.77,249.78L11.85,261.69,261.66,11.9l249.77,249.79ZM277.95,43.57c-8.94-8.96-23.66-8.96-32.6,0L43.58,245.37c-9,8.97-9,23.64,0,32.64l201.77,201.77c8.95,8.96,23.66,8.96,32.6,0l201.81-201.77c8.97-9,8.97-23.67,0-32.64L277.95,43.57Z"/>
    <path class="cls-2" d="M329.41,211.15c.45-19.39,3.11-41.69-3.19-46.88-11.11-9.23-21.61-17.46-43.05-24.9-21.41-7.45-34.66-7.45-49.02-7.06-7.86.23-18.44,18.31-29.57,33.52-9.19,12.57-15.12,8.38-19.92,22.79-8.72,26.11-1.2,36.51,4,40.43l-3.55,10.58c-1.06,3.2.59,6.74,3.72,7.8l7.4,2.55c3.1,1.11,6.55-.65,7.62-3.84l3.32-9.94,28.09,9.76c.74,5.98,4.65,11.28,10.6,13.36,5.98,2.05,12.26.27,16.42-3.98l28.09,9.76-3.37,9.93c-1.06,3.16.63,6.71,3.77,7.77l7.35,2.58c3.13,1.09,6.55-.65,7.65-3.84l4.42-13.22c6.48-2.16,14.8-9.14,21.41-28.73,5.52-16.44-2.46-13.62-2.19-28.42M305.95,202.36c-18.27-10.16-25.23-13.33-37.97-17.75-12.68-4.37-20.09-6.21-40.67-9.55-20.54-3.28-11.09-13.77-8.37-17.43,2.77-3.66,8.84-8.41,14.67-10.23,5.8-1.79,24-.82,44.78,6.39,20.71,7.17,35.66,17.72,39.23,22.79,3.52,5.04,5.48,12.6,5.45,17.2-.04,4.57,1.17,18.78-17.11,8.59"/>
    <path class="cls-2" d="M187.62,301.68c-61.12-22.97-7-42.02,41.25-33.73.62.09-.6-.23,0,0-70.77-30.2-120.43,8.32-41.86,35.92l.61-2.2Z"/>
    <path class="cls-2" d="M218.38,317.04c46.08,4.3,136.7,9.93,134.59,45.38-.47,6.95-10.55,34.08-68.13,38,4.16-.29,44.26-12.8,43.09-35.66-1.59-30.64-64.24-32.75-109.51-46.08l-.03-1.64Z"/>
    <path class="cls-2" d="M150.45,360.13c68.94,15.76,75.84-17.8,66.42-30.41-27.75-36.94,26.91-52.23,50.8-50.45-21.97-6.09-97.06,11.25-65.78,46.49,26.34,29.71-40.25,36.74-51.44,34.37"/>
  </g>
</svg>