<?xml version="1.0" encoding="UTF-8"?>
<svg id="_レイヤー_2" data-name="レイヤー 2" xmlns="http://www.w3.org/2000/svg" viewBox="0 0 569.97 516.71">
  <defs>
    <style>
      .cls-1 {
        fill: #e60012;
      }

      .cls-1, .cls-2 {
        stroke-width: 0px;
      }

      .cls-3 {
        stroke: #e60012;
        stroke-width: 3.75px;
      }

      .cls-3, .cls-4 {
        fill: none;
      }

      .cls-2 {
        fill: #fff;
      }

      .cls-4 {
        stroke: #fff;
        stroke-linejoin: round;
        stroke-width: 3.84px;
      }
    </style>
  </defs>
  <g id="_レイヤー_1-2" data-name="レイヤー 1">
    <path class="cls-2" d="M54.29,1.88C16.69,1.88-19.18,13.16,16.69,77.66l228.99,401.7c11.96,19.36,22.2,35.48,39.29,35.48s27.35-16.12,39.32-35.48l228.98-401.7c35.87-64.51,0-75.79-37.59-75.79H54.29Z"/>
    <path class="cls-3" d="M54.29,1.88C16.69,1.88-19.18,13.16,16.69,77.66l228.99,401.7c11.96,19.36,22.2,35.48,39.29,35.48s27.35-16.12,39.32-35.48l228.98-401.7c35.87-64.51,0-75.79-37.59-75.79H54.29Z"/>
    <path class="cls-1" d="M57.63,15.7c-36.57,0-49.43,10.58-17.55,71.08l209.98,376.66c10.63,18.16,19.75,33.28,34.91,33.28s24.28-15.12,34.92-33.28l209.97-376.66c31.91-60.5,19.02-71.08-17.55-71.08H57.63Z"/>
    <polygon class="cls-2" points="153.75 194.21 172.82 194.21 172.82 91.47 182.79 91.47 182.79 132.77 214.31 132.77 214.31 144.41 182.79 144.41 182.79 194.21 223.86 194.21 223.86 205.81 129.65 205.81 129.65 194.21 143.76 194.21 143.76 122.2 153.75 122.2 153.75 194.21"/>
    <polygon class="cls-4" points="153.75 194.21 172.82 194.21 172.82 91.47 182.79 91.47 182.79 132.77 214.31 132.77 214.31 144.41 182.79 144.41 182.79 194.21 223.86 194.21 223.86 205.81 129.65 205.81 129.65 194.21 143.76 194.21 143.76 122.2 153.75 122.2 153.75 194.21"/>
    <path class="cls-2" d="M285.22,196.29c-1.66,2.16-4.45,3.16-8.33,3.16-4.11,0-7.56-1.2-10.35-3.69-1.95-1.47-2.9-3.16-2.9-5.3,0-2.46.95-4.77,2.9-6.88,2.49-2.11,6.05-3.16,10.78-3.16,3.9,0,7.35.17,10.36.52v5.83c0,4.6-.8,7.73-2.46,9.52M297.89,105c.12-2.31.32-4.54.62-6.65.3-2.11.37-3.9.37-5.27l-12-.55.44,21.73c-7.48,0-14.27-.38-20.37-1.09-6.61-.7-11.59-1.58-14.94-2.66l-1.26,12.19c4.72,1.44,8.87,2.14,12.45,2.14,3.06.35,11.12.52,24.12.52v18.02c-8.33.32-13.71.14-16.2-.56-1.94-.64-3.04-1.61-3.31-2.66-.59-1.02-1.11-3.31-1.67-6.88l-9.55.59c.3,9.14,2.63,15.15,7.06,17.96,2.48,1.43,10.36,2.13,23.67,2.13v16.94c-4.45-.7-7.35-1.02-8.73-1.02-8.58,0-15.09,2.28-19.51,6.82-3.35,3.55-4.98,8-4.98,13.24s1.94,9.91,5.8,13.77c3.9,3.87,9.55,5.83,17,5.83,5.78,0,10.66-1.41,14.54-4.22,2.46-1.46,4.18-3.57,4.95-6.38.57-2.11.89-7.03.89-14.8,8.02,3.87,13.69,7.06,16.99,9.52,1.67,1.41,5.69,4.92,12.05,10.6l6.65-10.6c-5.84-4.98-11.53-9.2-17.02-12.72-5.27-2.81-11.5-5.45-18.66-7.97-.32-3.84-.44-10.34-.44-19.52l13.26-.57,14.53-2.09-.39-12.21c-8.59,2.48-17.74,3.92-27.4,4.24v-17.46c13.83-1.76,24.59-3.37,32.37-4.74l-.41-13.24c-2.75.7-5.33,1.38-7.67,2.11-2.34.7-5.19,1.46-8.55,2.11-3.03.7-8.13,1.23-15.3,1.58.27-3.16.46-5.91.61-8.17"/>
    <path class="cls-4" d="M285.22,196.29c-1.66,2.16-4.45,3.16-8.33,3.16-4.11,0-7.56-1.2-10.35-3.69-1.95-1.47-2.9-3.16-2.9-5.3,0-2.46.95-4.77,2.9-6.88,2.49-2.11,6.05-3.16,10.78-3.16,3.9,0,7.35.17,10.36.52v5.83c0,4.6-.8,7.73-2.46,9.52ZM297.89,105c.12-2.31.32-4.54.62-6.65.3-2.11.37-3.9.37-5.27l-12-.55.44,21.73c-7.48,0-14.27-.38-20.37-1.09-6.61-.7-11.59-1.58-14.94-2.66l-1.26,12.19c4.72,1.44,8.87,2.14,12.45,2.14,3.06.35,11.12.52,24.12.52v18.02c-8.33.32-13.71.14-16.2-.56-1.94-.64-3.04-1.61-3.31-2.66-.59-1.02-1.11-3.31-1.67-6.88l-9.55.59c.3,9.14,2.63,15.15,7.06,17.96,2.48,1.43,10.36,2.13,23.67,2.13v16.94c-4.45-.7-7.35-1.02-8.73-1.02-8.58,0-15.09,2.28-19.51,6.82-3.35,3.55-4.98,8-4.98,13.24s1.94,9.91,5.8,13.77c3.9,3.87,9.55,5.83,17,5.83,5.78,0,10.66-1.41,14.54-4.22,2.46-1.46,4.18-3.57,4.95-6.38.57-2.11.89-7.03.89-14.8,8.02,3.87,13.69,7.06,16.99,9.52,1.67,1.41,5.69,4.92,12.05,10.6l6.65-10.6c-5.84-4.98-11.53-9.2-17.02-12.72-5.27-2.81-11.5-5.45-18.66-7.97-.32-3.84-.44-10.34-.44-19.52l13.26-.57,14.53-2.09-.39-12.21c-8.59,2.48-17.74,3.92-27.4,4.24v-17.46c13.83-1.76,24.59-3.37,32.37-4.74l-.41-13.24c-2.75.7-5.33,1.38-7.67,2.11-2.34.7-5.19,1.46-8.55,2.11-3.03.7-8.13,1.23-15.3,1.58.27-3.16.46-5.91.61-8.17Z"/>
    <path class="cls-2" d="M376.94,92.52l10.81.55-1.27,22.73,3.75-2.08,3.72,8.46c-3.3,3.52-6.09,6.86-8.29,10.08v7.41c11.34-11.66,19.52-19.25,24.49-22.79,4.4-2.84,8-4.25,10.78-4.25,4.13,0,7.33,1.41,9.51,4.25,2.24,3.54,3.38,8.11,3.38,13.77,0,6.71-.16,14.12-.44,22.21-.82,17.31-1.26,26.3-1.26,27.01,0,3.9.44,6.74,1.26,8.47.28,1.44,1.09,2.11,2.49,2.11,1.11,0,2.03-.67,2.9-2.11.55-1.09,1.49-5.98,2.88-14.83,3.36,3.16,6.52,4.92,9.57,5.27-1.67,9.88-3.72,16.44-6.21,19.63-2.52,3.15-5.54,4.74-9.14,4.74-4.2,0-7.48-1.76-9.96-5.3-2.49-3.87-3.72-9.52-3.72-16.94s.07-13.95.41-20.62c.82-15.52,1.23-23.64,1.23-24.38,0-4.6-.56-7.59-1.64-8.99-1.16-1.44-2.52-2.11-4.18-2.11-1.96,0-4.15,1.02-6.63,3.2-5.32,4.24-13.99,12.86-26.13,25.92v21.16l.41,32.84h-9.96l.37-42.4-16.57,22.24-5.8-11.11,22.37-26.48.45-19.54c-6.66,2.11-12.16,3.48-16.62,4.22l-.8-12.19c4.16-.32,10.06-1.38,17.84-3.13v-27.04Z"/>
    <path class="cls-4" d="M376.94,92.52l10.81.55-1.27,22.73,3.75-2.08,3.72,8.46c-3.3,3.52-6.09,6.86-8.29,10.08v7.41c11.34-11.66,19.52-19.25,24.49-22.79,4.4-2.84,8-4.25,10.78-4.25,4.13,0,7.33,1.41,9.51,4.25,2.24,3.54,3.38,8.11,3.38,13.77,0,6.71-.16,14.12-.44,22.21-.82,17.31-1.26,26.3-1.26,27.01,0,3.9.44,6.74,1.26,8.47.28,1.44,1.09,2.11,2.49,2.11,1.11,0,2.03-.67,2.9-2.11.55-1.09,1.49-5.98,2.88-14.83,3.36,3.16,6.52,4.92,9.57,5.27-1.67,9.88-3.72,16.44-6.21,19.63-2.52,3.15-5.54,4.74-9.14,4.74-4.2,0-7.48-1.76-9.96-5.3-2.49-3.87-3.72-9.52-3.72-16.94s.07-13.95.41-20.62c.82-15.52,1.23-23.64,1.23-24.38,0-4.6-.56-7.59-1.64-8.99-1.16-1.44-2.52-2.11-4.18-2.11-1.96,0-4.15,1.02-6.63,3.2-5.32,4.24-13.99,12.86-26.13,25.92v21.16l.41,32.84h-9.96l.37-42.4-16.57,22.24-5.8-11.11,22.37-26.48.45-19.54c-6.66,2.11-12.16,3.48-16.62,4.22l-.8-12.19c4.16-.32,10.06-1.38,17.84-3.13v-27.04Z"/>
  </g>
</svg>