<?xml version="1.0" encoding="UTF-8"?>
<svg id="_レイヤー_2" data-name="レイヤー 2" xmlns="http://www.w3.org/2000/svg" viewBox="0 0 546.53 546.55">
  <defs>
    <style>
      .cls-1 {
        fill: none;
        stroke: #005bac;
        stroke-width: 3.75px;
      }

      .cls-2 {
        fill: #fff;
      }

      .cls-2, .cls-3 {
        stroke-width: 0px;
      }

      .cls-3 {
        fill: #005bac;
      }
    </style>
  </defs>
  <g id="_レイヤー_1-2" data-name="レイヤー 1">
    <path class="cls-2" d="M273.27,544.67c149.86,0,271.38-121.54,271.38-271.41S423.13,1.88,273.27,1.88,1.88,123.38,1.88,273.27s121.48,271.41,271.4,271.41"/>
    <path class="cls-1" d="M273.27,544.67c149.86,0,271.38-121.54,271.38-271.41S423.13,1.88,273.27,1.88,1.88,123.38,1.88,273.27s121.48,271.41,271.4,271.41Z"/>
    <path class="cls-3" d="M273.27,525.84c139.49,0,252.58-113.05,252.58-252.57S412.77,20.67,273.27,20.67,20.68,133.76,20.68,273.27s113.09,252.57,252.59,252.57"/>
    <path class="cls-2" d="M264.1,183.59c-4.27,6.48-10.72,20.45-3.2,30.12,7.52,5.39,29.04-7.5,47.3-19.34v151.64c-34.41-33.34-80.66-30.05-119.31-30.05,10.7-17.29,24.77-39.79,19.35-47.31-6.48-10.81-23.65-1.09-30.09,3.22l-108.83,66.95c-1.7,1.05-1.7,2.73,0,3.78l108.83,66.97c6.44,4.28,23.61,12.84,30.09,3.23,5.42-7.56-8.65-29.12-19.35-47.34,45.12,0,91.37-7.59,119.31,70.9v46.99c0,1.96,1.61,3.57,3.59,3.57h42.3c1.98,0,3.57-1.61,3.57-3.57V194.37c18.31,12.89,39.83,24.73,47.36,19.34,9.68-7.5,1.04-23.64-3.23-30.12l-66.95-108.8c-1.04-1.67-2.7-1.67-3.75,0l-66.98,108.8Z"/>
  </g>
</svg>