<?xml version="1.0" encoding="UTF-8" standalone="no"?>
<svg xmlns="http://www.w3.org/2000/svg" viewBox="0 -0.834 792 247">
 <path d="M771.49,242.3h-204.28c-9.655,0-17.511-7.857-17.511-17.515v-204.27c0-9.658,7.855-17.513,17.511-17.513h204.28c9.657,0,17.513,7.855,17.513,17.513v204.27c0,9.65-7.86,17.51-17.51,17.51z" fill="#E6E6E6"/>
 <path d="M771.49,0c11.33,0,20.51,9.184,20.51,20.513v204.27c0,11.33-9.185,20.514-20.514,20.514h-204.28c-11.329,0-20.512-9.184-20.512-20.514v-204.28c0-11.329,9.18-20.513,20.51-20.513h204.28m0.004,6h-204.28c-8.002,0-14.512,6.51-14.512,14.513v204.27c0,8.003,6.51,14.514,14.512,14.514h204.28c8.003,0,14.514-6.511,14.514-14.514v-204.28c0.01-8.003-6.5-14.513-14.5-14.513z"/>
 <path d="M616,168.79h-25.565v7.987c0,9.724-14.206,9.84-14.206,0v-7.987h-7.562v-25.012c0-6.714,5.455-10.262,8.536-10.649l7.775-19.658c1.463-3.744,4.634-6.943,10.611-6.943h11.109v-5.133c0-2.053,1.123-3.095,2.952-3.095h6.353-0.016,6.473c1.829,0,2.954,1.042,2.954,3.095v5.133h10.981c5.977,0,9.147,3.2,10.61,6.943l7.775,19.658c3.081,0.388,8.54,3.936,8.54,10.649v25.012h-7.561v7.987c0,9.84-14.207,9.724-14.207,0v-7.987h-25.546,0.02z"/>
 <path d="M615.98,132.66h-30.732l5.853-15.21c0.732-2.173,1.831-3.743,4.392-3.767h41.008c2.562,0.024,3.659,1.594,4.392,3.767l5.853,15.21h-30.736z" fill="#FFF"/>
 <path d="M583.56,153.5c-3.625,0-6.563-2.969-6.563-6.63s2.938-6.63,6.563-6.63c3.622,0,6.562,2.969,6.562,6.63s-2.94,6.63-6.56,6.63z" fill="#FFF"/>
 <path d="M648.42,153.5c3.625,0,6.563-2.969,6.563-6.63s-2.938-6.63-6.563-6.63c-3.622,0-6.561,2.969-6.561,6.63s2.94,6.63,6.56,6.63z" fill="#FFF"/>
 <path d="M719.37,60.913c-11.6,0-27.621,3.264-34.251,5.985-6.628,2.72-11.049,5.44-12.429,12.241l-4.972,37.701v51.951h8.562v8.146c0,9.934,14.76,9.934,14.76,0v-8.146h55.666v8.146c0,9.934,14.76,9.934,14.76,0v-8.146h8.562v-51.95l-4.971-37.701c-1.382-6.801-5.801-9.521-12.429-12.241-6.631-2.721-22.651-5.985-34.251-5.985"/>
 <ellipse rx="7.079" ry="6.973" cy="145.53" cx="754.08" fill="#FFF"/>
 <ellipse rx="7.081" ry="6.973" cy="145.53" cx="683.67" fill="#FFF"/>
 <path d="M718.33,76.554h-20.5c-4.143,0-4.143-6.12,0-6.12h42.095c4.144,0,4.144,6.12,0,6.12h-21.593z" fill="#FFF"/>
 <path d="M718.33,82.733h-31.67c-4.376,0-5.52,2.19-6.052,5.513l-3.869,27.344c-0.361,2.621,0.408,5.222,4.086,5.222h76.107c3.676,0,4.445-2.601,4.086-5.222l-3.871-27.344c-0.531-3.323-1.674-5.513-6.053-5.513h-32.783z" fill="#FFF"/>
 <path d="M498.14,242.3h-204.28c-9.655,0-17.512-7.856-17.512-17.512v-204.28c0-9.656,7.856-17.512,17.512-17.512h204.27c9.658,0,17.515,7.856,17.515,17.512v204.28c0.01,9.65-7.85,17.51-17.5,17.51z" fill="#E6E6E6"/>
 <path d="M498.14,0c11.329,0,20.514,9.184,20.514,20.512v204.27c0,11.33-9.185,20.514-20.514,20.514h-204.28c-11.329,0-20.513-9.184-20.513-20.514v-204.28c0-11.328,9.18-20.512,20.51-20.512h204.28m0.003,6h-204.28c-8.002,0-14.513,6.51-14.513,14.512v204.27c0,8.003,6.511,14.514,14.513,14.514h204.27c8.003,0,14.514-6.511,14.514-14.514v-204.28c0.01-8.002-6.5-14.512-14.5-14.512z"/>
 <circle cy="61.535" cx="396" r="24.063"/>
 <path d="M395.96,135.9h-25.437v-18.366l-19.453,19.581c-8.788,8.789-20.7-2.479-11.897-11.283l32.209-32.271c2.613-2.594,5.472-4.245,10.009-4.245h28.883c4.537,0,7.598,1.6,10.287,4.245l32.535,32.587c8.381,8.379-3.853,19.756-11.891,11.289l-19.963-20.004v18.467h-25.287z"/>
 <path d="M421.14,145.42l-19.115,19.118,14.034,14.008-14.38,14.382c-8.489,8.488,3.221,20.627,11.998,11.85l22.744-23.648c4.881-4.98,6.23-14.182,0.998-19.415-0.01-0.02-16.27-16.3-16.27-16.3z"/>
 <path d="M370.53,145.42l19.116,19.118-14.035,14.008,14.382,14.382c8.488,8.488-3.222,20.627-11.999,11.85l-22.744-23.648c-4.881-4.98-6.231-14.182-0.998-19.415,0.01-0.02,16.27-16.3,16.27-16.3z"/>
 <path d="M224.79,242.3h-204.28c-9.658,0-17.513-7.86-17.513-17.51v-204.28c0-9.658,7.855-17.513,17.513-17.513h204.28c9.656,0,17.511,7.855,17.511,17.513v204.27c0,9.66-7.86,17.52-17.51,17.52z" fill="#E6E6E6"/>
 <path d="M224.79,0c11.33,0,20.51,9.184,20.51,20.513v204.27c0,11.33-9.184,20.514-20.513,20.514h-204.28c-11.329,0-20.513-9.18-20.513-20.51v-204.28c0-11.329,9.184-20.513,20.513-20.513h204.27m0.003,6h-204.28c-8.003,0-14.513,6.51-14.513,14.513v204.27c0,8.003,6.51,14.514,14.513,14.514h204.27c8.002,0,14.513-6.511,14.513-14.514v-204.28c0-8.003-6.51-14.513-14.51-14.513z"/>
 <circle cy="56.132" cx="106.82" r="13.641"/>
 <path d="M120.33,94.329v-8.595c0-18.315-27.008-18.115-27.008,0v35.064h0.053l-25.518,25.518c-2.406,2.406-2.7,2.511-7.427,2.511-0.004,0.004-15.601,0-15.601,0-15.699,0-25.113,14.108-25.113,26.069,0,11.96,9.414,27.08,26.505,27.08h27.792s14.511-2.508,21.07-8.682l81.367-81.122c1.736-1.543,2.701-2.025,5.692-2.025h20.091c9.671,0,23.357-10.96,23.357-26.76,0-15.638-13.787-26.064-24.152-26.099h-31.723c-6.559,0-14.994,2.682-20.026,7.713l-29.36,29.315z"/>
 <path d="M179.81,152.13h-28.497c-7.85,0-8.152,12.075,0,12.075h14.606l-27.78,27.78c-6.158,6.158,2.552,15.068,9.095,8.528l27.366-27.442v14.457c-0.042,7.85,12.135,8.151,12.153,0v-28.321c0-4.23-2.84-7.08-6.95-7.08z"/>
 <path d="M171.64,70.793h28.542c6.945,0,11.617,7.764,11.617,12.394s-3.314,13.271-11.802,13.271h-17.16c-7.266,0-10.486,1.019-14.668,5.201l-81.99,81.99c-3.315,3.324-7.523,4.638-12.925,4.638h-27.037c-6.945,0-13.066-5.875-13.066-13.591,0-7.717,5.837-12.041,11.875-12.041h18.549c5.401,0,8.957-1.543,12.043-4.63l83.373-83.372c3.43-3.436,6.82-3.865,12.65-3.865z" fill="#FFF"/>
</svg>