<?xml version="1.0" encoding="UTF-8"?>
<svg id="_レイヤー_2" data-name="レイヤー 2" xmlns="http://www.w3.org/2000/svg" viewBox="0 0 587 807">
  <defs>
    <style>
      .cls-1, .cls-2 {
        font-size: 8px;
      }

      .cls-1, .cls-2, .cls-3, .cls-4, .cls-5 {
        fill: #fff;
      }

      .cls-1, .cls-2, .cls-3, .cls-4, .cls-6 {
        font-family: HiraKakuProN-W6-83pv-RKSJ-H, 'Hiragino Kaku Gothic ProN';
      }

      .cls-7, .cls-8, .cls-9, .cls-6, .cls-10 {
        fill: #231815;
      }

      .cls-11 {
        stroke-dasharray: 0 0 15.84 15.84;
      }

      .cls-11, .cls-12, .cls-13, .cls-14, .cls-15, .cls-16, .cls-17 {
        fill: none;
        stroke-miterlimit: 10;
      }

      .cls-11, .cls-16, .cls-17 {
        stroke: #fff;
        stroke-width: 8px;
      }

      .cls-2, .cls-4, .cls-9, .cls-6 {
        glyph-orientation-vertical: 0deg;
        text-orientation: upright;
        writing-mode: tb;
      }

      .cls-12 {
        stroke-width: 16px;
      }

      .cls-12, .cls-13, .cls-14, .cls-15 {
        stroke-linecap: round;
      }

      .cls-12, .cls-15 {
        stroke: #727171;
      }

      .cls-3, .cls-4, .cls-5, .cls-6 {
        font-size: 12px;
      }

      .cls-5, .cls-8, .cls-9, .cls-10 {
        font-family: HiraKakuStdN-W8-83pv-RKSJ-H, 'Hiragino Kaku Gothic StdN';
      }

      .cls-8, .cls-9 {
        font-size: 14px;
      }

      .cls-13 {
        stroke: #2ea7e0;
        stroke-width: 20px;
      }

      .cls-14 {
        stroke: #898989;
      }

      .cls-14, .cls-15 {
        stroke-width: 10px;
      }

      .cls-10 {
        font-size: 10px;
      }

      .cls-17 {
        stroke-dasharray: 0 0 16.05 16.05;
      }
    </style>
  </defs>
  <g id="_レイヤー_1-2" data-name="レイヤー 1">
    <polyline class="cls-13" points="282 12 485 185 485 797"/>
    <line class="cls-13" x1="485" y1="185" x2="554" y2="12"/>
    <line class="cls-15" x1="449" y1="68" x2="449" y2="797"/>
    <line class="cls-15" x1="8" y1="428" x2="494" y2="428"/>
    <line class="cls-15" x1="8" y1="68" x2="575" y2="68"/>
    <polyline class="cls-15" points="71 167 215 167 287 122 485 122 548 140 575 140"/>
    <line class="cls-15" x1="8" y1="212" x2="575" y2="212"/>
    <line class="cls-15" x1="8" y1="356" x2="575" y2="356"/>
    <line class="cls-15" x1="8" y1="500" x2="512" y2="500"/>
    <line class="cls-15" x1="251" y1="5" x2="251" y2="797"/>
    <text class="cls-1" transform="translate(8 71)"><tspan x="0" y="0">北山通</tspan></text>
    <text class="cls-1" transform="translate(80 170)"><tspan x="0" y="0">北大路通</tspan></text>
    <text class="cls-1" transform="translate(8 215)"><tspan x="0" y="0">今出川通</tspan></text>
    <line class="cls-12" x1="8" y1="572" x2="575" y2="572"/>
    <line class="cls-15" x1="8" y1="608" x2="512" y2="608"/>
    <polyline class="cls-14" points="8 680 197 644 575 644"/>
    <line class="cls-15" x1="8" y1="716" x2="512" y2="716"/>
    <text class="cls-3" transform="translate(8 576)"><tspan x="0" y="0">五条通</tspan></text>
    <text class="cls-1" transform="translate(8 611)"><tspan x="0" y="0">七条通</tspan></text>
    <text class="cls-1" transform="translate(8 719)"><tspan x="0" y="0">九条通</tspan></text>
    <line class="cls-15" x1="71" y1="167" x2="71" y2="797"/>
    <line class="cls-15" x1="161" y1="5" x2="161" y2="797"/>
    <line class="cls-12" x1="332" y1="74" x2="332" y2="797"/>
    <line class="cls-15" x1="413" y1="212" x2="413" y2="572"/>
    <polyline class="cls-15" points="566 41 512 185 512 716"/>
    <text class="cls-2" transform="translate(71 752)"><tspan x="0" y="0">西大路通</tspan></text>
    <text class="cls-2" transform="translate(160.97 761.38)"><tspan x="0" y="0">千本通</tspan></text>
    <text class="cls-2" transform="translate(251 761)"><tspan x="0" y="0">堀川通</tspan></text>
    <text class="cls-4" transform="translate(332 761)"><tspan x="0" y="0">烏丸通</tspan></text>
    <text class="cls-2" transform="translate(413 527)"><tspan x="0" y="0">寺町通</tspan></text>
    <text class="cls-2" transform="translate(449 753)"><tspan x="0" y="0">河原町通</tspan></text>
    <text class="cls-2" transform="translate(512 680)"><tspan x="0" y="0">東大路通</tspan></text>
    <text class="cls-6" transform="translate(485 761)"><tspan x="0" y="0">鴨川</tspan></text>
    <text class="cls-9" transform="translate(530 473)"><tspan x="0" y="0">八坂神社</tspan></text>
    <text class="cls-8" transform="translate(536 553)"><tspan x="0" y="0">清水寺</tspan></text>
    <text class="cls-8" transform="translate(545 203)"><tspan x="0" y="0">銀閣寺</tspan></text>
    <text class="cls-8" transform="translate(18 162)"><tspan x="0" y="0">金閣寺</tspan></text>
    <text class="cls-8" transform="translate(203 401)"><tspan x="0" y="0">二条城</tspan></text>
    <text class="cls-8" transform="translate(346 293)"><tspan x="0" y="0">京都御所</tspan></text>
    <path class="cls-14" d="M8,374H174.32c12.52,0,22.68,10.15,22.68,22.68v247.32"/>
    <g>
      <line class="cls-16" x1="8" y1="680" x2="15.86" y2="678.5"/>
      <polyline class="cls-11" points="31.42 675.54 197 644 559.08 644"/>
      <line class="cls-16" x1="567" y1="644" x2="575" y2="644"/>
    </g>
    <g>
      <line class="cls-16" x1="8" y1="374" x2="16" y2="374"/>
      <path class="cls-17" d="M32.05,374H174.32c12.52,0,22.68,10.15,22.68,22.68v231.3"/>
      <line class="cls-16" x1="197" y1="636" x2="197" y2="644"/>
    </g>
    <text class="cls-10" transform="translate(456 140)"><tspan x="0" y="0">下鴨神社</tspan></text>
    <rect class="cls-7" x="296" y="631" width="72" height="27" rx="5.65" ry="5.65"/>
    <text class="cls-5" transform="translate(314 650)"><tspan x="0" y="0">京都駅</tspan></text>
    <text class="cls-8" transform="translate(197 698)"><tspan x="0" y="0">東寺</tspan></text>
    <text class="cls-1" transform="translate(8.36 502.83)"><tspan x="0" y="0">四条通</tspan></text>
    <text class="cls-1" transform="translate(7.6 358.53)"><tspan x="0" y="0">丸太町通</tspan></text>
    <text class="cls-1" transform="translate(7.6 430.53)"><tspan x="0" y="0">御池通</tspan></text>
    <text class="cls-8" transform="translate(523.12 378.04)"><tspan x="0" y="0">平安神宮</tspan></text>
    <text class="cls-8" transform="translate(83.12 198.04)"><tspan x="0" y="0">北野天満宮</tspan></text>
    <text class="cls-10" transform="translate(204.12 596.04)"><tspan x="0" y="0">西本願寺</tspan></text>
    <text class="cls-10" transform="translate(282.12 596.04)"><tspan x="0" y="0">東本願寺</tspan></text>
  </g>
</svg>